# xmcd
#
# Track frame offsets: 
#        150
#        14809
#        34752
#        56562
#        73712
#        93491
#        112403
#        138396
#        156291
#        177328
#        209939
#        227402
#        246164
#        264452
#
# Disc length: 4466 seconds
#
# Revision: 33
# Processed by: cddbd v1.5.2PL0 Copyright (c) Steve Scherf et al.
# Submitted via: ExactAudioCopy v0.90b4
#
DISCID=d611700e
DTITLE=Robbie Williams - Escapology
DYEAR=2002
DGENRE=Pop
TTITLE0=How Peculiar
TTITLE1=Feel
TTITLE2=Something Beautiful
TTITLE3=Monsoon
TTITLE4=Sexed Up
TTITLE5=Love Somebody
TTITLE6=Revolution
TTITLE7=Handsome Man
TTITLE8=Come Undone
TTITLE9=Me and My Monkey
TTITLE10=Song 3
TTITLE11=Hot Fudge
TTITLE12=Cursed
TTITLE13=Nan's Song
EXTD=
EXTT0=
EXTT1=
EXTT2=
EXTT3=
EXTT4=
EXTT5=
EXTT6=
EXTT7=
EXTT8=
EXTT9=
EXTT10=
EXTT11=
EXTT12=
EXTT13=
PLAYORDER=
